ply
format ascii 1.0
comment Test for Mixed Pixel uncertainty detection
element vertex 11
property float x
property float y
property float z
property float ox
property float oy
property float oz
property uchar red
property uchar green
property uchar blue
property uchar alpha
property double time
end_header
0.00 0.00 1.50  0.0 0.0 0.0  255 0 0 128 0.0
0.10 0.00 1.00  0.0 0.0 0.0  0 255 0 128 0.1
0.00 0.00 2.00  0.0 0.0 0.0  0 0 255 128 0.2
0.02 0.00 2.00  0.0 0.0 0.0  128 128 128 128 0.3
-0.02 0.00 2.00  0.0 0.0 0.0  128 128 128 128 0.4
0.00 0.02 2.00  0.0 0.0 0.0  128 128 128 128 0.5
0.00 -0.02 2.00  0.0 0.0 0.0  128 128 128 128 0.6
0.12 0.00 1.00  0.0 0.0 0.0  128 128 128 128 0.7
0.08 0.00 1.00  0.0 0.0 0.0  128 128 128 128 0.8
0.10 0.02 1.00  0.0 0.0 0.0  128 128 128 128 0.9
0.10 -0.02 1.00  0.0 0.0 0.0  128 128 128 128 1.0
